Coordinates
version=1
nRows=26
nColumns=24
inDegrees=yes

Units are S.I. units (second, meters, Newtons, ...)
Angles are in degrees.

endheader
time	pelvis_tilt	pelvis_list	pelvis_rotation	pelvis_tx	pelvis_ty	pelvis_tz	hip_flexion_r	hip_adduction_r	hip_rotation_r	knee_angle_r	ankle_angle_r	subtalar_angle_r	mtp_angle_r	hip_flexion_l	hip_adduction_l	hip_rotation_l	knee_angle_l	ankle_angle_l	subtalar_angle_l	mtp_angle_l	lumbar_extension	lumbar_bending	lumbar_rotation
      0.40000000	      5.20514081	     -1.91801495	     -0.86580315	      0.60176552	      1.04544409	     -0.02166068	     19.68564084	     -2.80054650	     -6.55213343	    -55.15572884	      2.76501535	      0.00481637	      0.00000000	     -6.25063265	      1.23962279	     -0.93266220	     -7.28764812	      5.46037136	      0.05986948	      0.00000000	    -16.77343365	     -0.23593721	     -5.25185949
      0.41666667	      5.17144017	     -1.78525617	     -0.70814415	      0.59903123	      1.04451854	     -0.02304243	     20.19187110	     -3.02098623	     -7.04348474	    -50.30073766	      2.78087099	     -0.01756241	      0.00000000	     -7.70674266	      1.46224506	     -0.70037509	     -6.29555721	      5.66639919	     -0.00484360	      0.00000000	    -17.05358847	     -0.20246999	     -5.56784509
      0.43333333	      5.10380640	     -1.46119318	     -0.78053386	      0.59678759	      1.04298763	     -0.02317567	     20.50002366	     -3.36677782	     -7.60103218	    -44.97244882	      2.67337228	     -0.00693095	      0.00000000	     -9.18233014	      1.86062134	     -0.74452634	     -5.26367647	      5.91374463	     -0.01855697	      0.00000000	    -17.09982081	     -0.50929071	     -5.53587211
      0.45000000	      5.22855488	     -1.00812415	     -0.66552329	      0.59465767	      1.04126342	     -0.02342018	     20.32672077	     -3.85295121	     -8.44642526	    -39.19769069	      2.42290883	      0.03340814	      0.00000000	    -10.77336662	      2.35773679	     -0.56381282	     -4.41352450	      6.25904515	     -0.02284459	      0.00000000	    -17.32904067	     -0.87604392	     -5.66785023
      0.46666667	      5.06143502	     -0.30372122	     -0.62355055	      0.59213993	      1.03862508	     -0.02345334	     20.35622753	     -4.44188766	     -9.14887228	    -33.15912112	      2.00102488	      0.02357150	      0.00000000	    -11.91551002	      3.10861477	     -0.37303657	     -3.80187879	      6.67991338	     -0.01083999	      0.00000000	    -17.25009423	     -1.58556305	     -5.84773243
      0.48333333	      5.00863334	      0.00967001	     -0.18435754	      0.59080342	      1.03622014	     -0.02316355	     19.73984385	     -4.53800764	    -10.18665662	    -26.49770686	      1.45015717	      0.00889991	      0.00000000	    -13.41834808	      3.29332015	      0.15564484	     -2.85918184	      6.98591286	     -0.01392918	      0.00000000	    -17.24504714	     -1.78804802	     -6.16773675
      0.50000000	      4.87435871	      0.45337845	     -0.20375897	      0.58979760	      1.03318401	     -0.02175369	     19.20934112	     -4.43912576	    -10.25039966	    -19.88935914	      0.96009993	      0.00120876	      0.00000000	    -14.84250495	      3.67222597	      0.24857762	     -1.99986870	      7.30856699	     -0.03903631	      0.00000000	    -17.09272403	     -2.29879706	     -5.92686230
      0.51666667	      4.67923667	      0.99310712	     -0.11750497	      0.58850624	      1.02957861	     -0.02098075	     18.77151560	     -4.46567457	     -9.71368497	    -13.65529469	      0.65069582	      0.00912573	      0.00000000	    -16.06309461	      4.14807109	      0.51467206	     -1.40670449	      7.75019109	     -0.06936223	      0.00000000	    -16.91970452	     -2.74360542	     -6.08753264
      0.53333333	      4.52112496	      1.56535392	      0.20144157	      0.58747557	      1.02568618	     -0.02046992	     18.27155850	     -4.66683330	     -8.83129415	     -8.06647160	      0.67168716	      0.00470588	      0.00000000	    -17.22138639	      4.56744447	      1.06901841	     -1.06082877	      8.29925139	     -0.02970263	      0.00000000	    -16.76751611	     -3.14974821	     -6.25655550
      0.55000000	      4.40442672	      2.16574804	      0.11965205	      0.58697730	      1.02167346	     -0.01958095	     17.83379198	     -4.90727909	     -7.30260726	     -3.36501881	      0.86038452	     -0.01229014	      0.00000000	    -18.46824997	      5.12261272	      1.30269107	     -0.70644886	      8.77519494	     -0.07531375	      0.00000000	    -16.61764026	     -3.57881843	     -6.29060727
      0.56666667	      4.34609864	      2.61325603	      0.08905977	      0.58610492	      1.01777261	     -0.01883907	     17.74678698	     -5.15536595	     -5.85284359	     -0.40646773	      1.38390067	      0.01019512	      0.00000000	    -19.57774723	      5.49523585	      1.59226913	     -0.72157564	      9.38882019	     -0.05980273	      0.00000000	    -16.56500211	     -3.81365582	     -6.12143250
      0.58333333	      4.17495860	      2.94955607	      0.75773728	      0.58445198	      1.01429428	     -0.01865227	     17.97854310	     -5.54488921	     -5.46622609	      0.97559910	      1.77144570	      0.00053321	      0.00000000	    -20.08251381	      5.49345093	      2.47479347	     -1.63186962	     10.29457067	      0.02495609	      0.00000000	    -16.64776527	     -3.69971635	     -6.62501505
      0.60000000	      4.12400537	      2.99749470	      0.84307523	      0.58506543	      1.01153937	     -0.01686453	     18.24553055	     -5.42296635	     -5.03094323	      0.91194241	      1.94949620	      0.07579212	      0.00000000	    -20.93902107	      5.30907805	      2.83788392	     -2.31625592	     10.88928030	     -0.09526129	      0.00000000	    -16.46376395	     -3.47880368	     -6.33773084
      0.61666667	      4.09253451	      2.68214677	      1.11039116	      0.58576774	      1.00927164	     -0.01443258	     18.77746956	     -4.95561845	     -5.05394114	     -0.70150589	      1.63335088	      0.02174635	      0.00000000	    -21.55117154	      4.63220390	      3.09931138	     -3.47544111	     11.57204504	     -0.03062463	      0.00000000	    -16.42642605	     -2.89268210	     -6.48586677
      0.63333333	      4.11199386	      2.59831186	      1.65486219	      0.58675697	      1.00779518	     -0.01201882	     19.40560688	     -4.82536384	     -5.41468314	     -3.41930094	      0.94950462	     -0.06862579	      0.00000000	    -21.99689968	      4.06945624	      3.74431832	     -5.04130062	     12.05778121	      0.01616622	      0.00000000	    -16.45752722	     -2.49310039	     -6.78841363
      0.65000000	      3.98325292	      2.47962525	      2.13396352	      0.58820404	      1.00652996	     -0.00900613	     20.25733227	     -4.66579342	     -5.86230747	     -6.68603467	      0.01120392	     -0.00665902	      0.00000000	    -22.15587984	      3.48924349	      4.37691872	     -6.84372434	     12.39085205	      0.05761421	      0.00000000	    -16.24031992	     -2.14385906	     -7.18073913
      0.66666667	      3.82489069	      2.43148075	      2.50837927	      0.59016038	      1.00590508	     -0.00648342	     21.00771020	     -4.62401513	     -6.13458476	     -9.92801886	     -1.05810566	      0.00151439	      0.00000000	    -22.08441719	      3.10359430	      5.00295638	     -9.05206129	     12.38337459	      0.04356260	      0.00000000	    -15.93667493	     -1.66434559	     -7.32326927
      0.68333333	      3.91859126	      2.36368220	      2.63300928	      0.59186068	      1.00610129	     -0.00367788	     21.60668693	     -4.51521084	     -6.11001849	    -13.49101858	     -1.67070836	      0.02114945	      0.00000000	    -21.91308549	      2.82531724	      5.38341961	    -11.91604787	     12.09760785	      0.03134059	      0.00000000	    -15.85608585	     -1.16711607	     -7.22298849
      0.70000000	      4.19218375	      2.09828703	      2.93836915	      0.59526139	      1.00737721	     -0.00128749	     21.65867698	     -4.27956142	     -6.19909709	    -16.77275606	     -1.69043818	      0.02665091	      0.00000000	    -21.65601280	      2.30978010	      5.77127472	    -15.35444494	     11.29957998	      0.01682985	      0.00000000	    -15.96549561	     -0.47977871	     -7.31351270
      0.71666667	      4.51594466	      1.83588895	      3.18553399	      0.59832862	      1.00923297	      0.00108775	     21.16717912	     -4.01344894	     -6.31417267	    -19.12790382	     -1.56224252	      0.03540388	      0.00000000	    -20.83793666	      1.86651520	      5.89064204	    -19.77982222	     10.01659514	      0.01013917	      0.00000000	    -16.01438536	      0.35020189	     -7.44136802
      0.73333333	      4.59408416	      1.69066242	      3.32570827	      0.60054021	      1.01074618	      0.00420190	     20.85505913	     -3.79330218	     -6.31256486	    -21.24806953	     -1.15588531	     -0.01919474	      0.00000000	    -18.79118374	      1.59739916	      5.53601861	    -25.76888535	      8.29465534	      0.02348332	      0.00000000	    -15.88911599	      0.82062603	     -7.26827524
      0.75000000	      4.70943944	      1.40247495	      3.40642923	      0.60321618	      1.01270145	      0.00732371	     20.03008974	     -3.38339556	     -6.52540349	    -22.56605753	     -0.45085427	     -0.01865109	      0.00000000	    -16.39121441	      1.08832969	      4.59201393	    -32.06728131	      5.51996748	      0.03288528	      0.00000000	    -15.76261379	      1.39759537	     -7.47499647
      0.76666667	      4.61367566	      1.06269783	      3.50658252	      0.60514472	      1.01443071	      0.01028673	     19.28471822	     -2.89461387	     -6.71889482	    -23.55330657	      0.53736719	     -0.02104297	      0.00000000	    -13.18711329	      0.32373776	      3.13761265	    -38.81973445	      1.90647244	      0.00905576	      0.00000000	    -15.49151347	      2.01992294	     -7.17061150
      0.78333333	      4.56481390	      0.47717132	      3.60182644	      0.60572050	      1.01623271	      0.01377809	     18.22510362	     -2.05825514	     -7.04681797	    -23.81601377	      1.43628099	     -0.01300198	      0.00000000	     -9.76461097	     -0.99681398	      1.38626783	    -45.33441466	     -1.98865261	      0.03582379	      0.00000000	    -15.35043737	      2.77384970	     -6.73233067
      0.80000000	      4.59055821	     -0.26754194	      3.49465162	      0.60625027	      1.01801367	      0.01746634	     17.06549740	     -0.94652102	     -7.12601112	    -23.97745500	      2.52127685	     -0.00505028	      0.00000000	     -6.45619692	     -2.69036329	     -0.53880018	    -51.27246783	     -5.37960355	      0.01735312	      0.00000000	    -15.27061704	      3.64934650	     -5.88971885
      0.81666667	      4.66032095	     -1.04108592	      3.57331379	      0.60647774	      1.02039582	      0.02124561	     15.50160119	      0.20443984	     -7.40254784	    -23.39521613	      3.38520559	      0.02882965	      0.00000000	     -3.42157307	     -4.47818696	     -1.85667848	    -56.26678764	     -7.36762049	     -0.00196976	      0.00000000	    -15.09665840	      4.46184449	     -5.73181389
